<?xml version="1.0" encoding="UTF-8" standalone="no"?>
<svg
   version="1.0"
   width="103.000000pt"
   height="101.000000pt"
   viewBox="0 0 103.000000 101.000000"
   preserveAspectRatio="xMidYMid meet"
   fill="black"
   id="svg1"
   sodipodi:docname="ChatGPT_Image_Apr_16__2025__04_42_40_PM-removebg-preview-Copy-Copy.svg"
   inkscape:version="1.4 (86a8ad7, 2024-10-11)"
   xmlns:inkscape="http://www.inkscape.org/namespaces/inkscape"
   xmlns:sodipodi="http://sodipodi.sourceforge.net/DTD/sodipodi-0.dtd"
   xmlns="http://www.w3.org/2000/svg"
   xmlns:svg="http://www.w3.org/2000/svg">
  <defs
     id="defs1" />
  <sodipodi:namedview
     id="namedview1"
     pagecolor="#ffffff"
     bordercolor="#000000"
     borderopacity="0.25"
     inkscape:showpageshadow="2"
     inkscape:pageopacity="0.0"
     inkscape:pagecheckerboard="0"
     inkscape:deskcolor="#d1d1d1"
     inkscape:document-units="pt"
     inkscape:zoom="5.9925743"
     inkscape:cx="68.668319"
     inkscape:cy="67.333333"
     inkscape:window-width="2560"
     inkscape:window-height="1009"
     inkscape:window-x="-8"
     inkscape:window-y="-8"
     inkscape:window-maximized="1"
     inkscape:current-layer="g1" />
  <g
     transform="matrix(0.1,0,0,-0.1,0,101)"
     fill="green"
     stroke="none"
     id="g1">
    <rect
       style="fill:#0be086;stroke-width:0.75;fill-opacity:1"
       id="rect1"
       width="79.473358"
       height="81.100372"
       x="13.892193"
       y="8.5105324"
       transform="matrix(9.9999998,0,0,-9.9999998,0,1010)" />
    <path
       d="M130 967 c-19 -7 -44 -27 -57 -46 -22 -33 -23 -41 -26 -325 -3 -453 -3 -457 17 -494 11 -21 33 -41 59 -53 39 -17 70 -19 396 -19 333 0 357 1 396 20 22 11 49 34 60 52 19 31 20 52 20 399 -1 344 -2 367 -20 399 -11 18 -33 42 -48 54 -28 20 -40 21 -395 23 -267 2 -376 -1 -402 -10z m467 -103 c3 -8 -9 -71 -27 -139 -17 -68 -29 -128 -25 -134 4 -7 50 -11 121 -11 109 0 114 -1 114 -21 0 -20 -23 -58 -62 -104 -9 -11 -71 -89 -138 -173 -162 -203 -181 -203 -131 0 17 69 31 130 31 136 0 8 -33 12 -109 12 -83 0 -111 3 -121 15 -14 17 -12 21 54 105 29 36 87 110 131 165 90 114 135 165 147 165 5 0 11 -7 15 -16z"
       fill="blue"
       id="path1"
       style="fill:#0d1814;fill-opacity:1" />
  </g>
</svg>
